<svg width="24" height="25" viewBox="0 0 24 25" fill="none" xmlns="http://www.w3.org/2000/svg">
<path fill-rule="evenodd" clip-rule="evenodd" d="M7.46855 6.91438C7.1451 6.65562 6.67313 6.70806 6.41438 7.03151C6.15562 7.35495 6.20806 7.82692 6.53151 8.08568L11.5315 12.0857C11.8054 12.3048 12.1946 12.3048 12.4685 12.0857L17.4685 8.08568C17.792 7.82692 17.8444 7.35495 17.5857 7.03151C17.3269 6.70806 16.855 6.65562 16.5315 6.91438L12 10.5396L7.46855 6.91438ZM7.46855 12.9144C7.1451 12.6556 6.67313 12.7081 6.41438 13.0315C6.15562 13.355 6.20806 13.8269 6.53151 14.0857L11.5315 18.0857C11.8054 18.3048 12.1946 18.3048 12.4685 18.0857L17.4685 14.0857C17.792 13.8269 17.8444 13.355 17.5857 13.0315C17.3269 12.7081 16.855 12.6556 16.5315 12.9144L12 16.5396L7.46855 12.9144Z" fill="#595959"/>
</svg>
