<svg width="155" height="32" viewBox="0 0 155 32" fill="none" xmlns="http://www.w3.org/2000/svg">
<path d="M11.783 6.82234L12.8425 9.29137L2.34375 13.9046L12.8425 18.5827L11.783 20.9868L0 15.4315V12.3777L11.783 6.82234Z" fill="#0E0E0E"/>
<path d="M20.869 25.1127C19.7774 25.1127 18.9105 24.7878 18.2684 24.1381C17.6477 23.4667 17.3373 22.5354 17.3373 21.3442V0.714721L20.2911 0.35736V21.2792C20.2911 21.7557 20.366 22.1022 20.5158 22.3188C20.6871 22.5354 20.9653 22.6437 21.3506 22.6437C21.7573 22.6437 22.1211 22.5787 22.4422 22.4487L23.2128 24.5279C22.5064 24.9178 21.7252 25.1127 20.869 25.1127Z" fill="#0E0E0E"/>
<path d="M39.5254 15.6589C39.5254 16.157 39.504 16.666 39.4612 17.1858H28.6736C28.802 19.0701 29.2729 20.4562 30.0862 21.3442C30.8996 22.2322 31.9484 22.6761 33.2326 22.6761C34.046 22.6761 34.7951 22.557 35.4801 22.3188C36.165 22.0805 36.882 21.7015 37.6312 21.1817L38.9154 22.9685C37.1175 24.398 35.1483 25.1127 33.0079 25.1127C30.6534 25.1127 28.8127 24.333 27.4856 22.7736C26.18 21.2142 25.5272 19.0701 25.5272 16.3411C25.5272 14.5651 25.8054 12.9949 26.3619 11.6305C26.9398 10.2443 27.7532 9.16142 28.802 8.38173C29.8722 7.60203 31.1243 7.21218 32.5584 7.21218C34.8058 7.21218 36.5289 7.95939 37.7275 9.45381C38.9261 10.9482 39.5254 13.0166 39.5254 15.6589ZM36.6038 14.7817C36.6038 13.0924 36.272 11.8037 35.6085 10.9157C34.945 10.0277 33.9497 9.58376 32.6226 9.58376C30.204 9.58376 28.8876 11.3814 28.6736 14.9767H36.6038V14.7817Z" fill="#0E0E0E"/>
<path d="M50.5996 7.21218C52.9754 7.21218 54.8162 8.01354 56.1218 9.61624C57.4489 11.219 58.1124 13.3956 58.1124 16.1462C58.1124 17.9222 57.8127 19.4924 57.2134 20.8569C56.6141 22.1997 55.7472 23.2501 54.6128 24.0081C53.4784 24.7445 52.1299 25.1127 50.5674 25.1127C48.1916 25.1127 46.3401 24.3113 45.0131 22.7086C43.686 21.1059 43.0225 18.9293 43.0225 16.1787C43.0225 14.4027 43.3222 12.8433 43.9215 11.5005C44.5208 10.136 45.3877 9.08562 46.5221 8.34924C47.6565 7.5912 49.0156 7.21218 50.5996 7.21218ZM50.5996 9.61624C47.6672 9.61624 46.201 11.8037 46.201 16.1787C46.201 20.532 47.6565 22.7086 50.5674 22.7086C53.4784 22.7086 54.9339 20.5212 54.9339 16.1462C54.9339 11.7929 53.4891 9.61624 50.5996 9.61624Z" fill="#0E0E0E"/>
<path d="M66.4916 25.3076C64.8863 25.3076 63.6449 24.8528 62.7673 23.9431C61.8897 23.0335 61.4509 21.7232 61.4509 20.0122V0.584772L67.1658 0V19.8173C67.1658 20.4453 67.4441 20.7594 68.0006 20.7594C68.236 20.7594 68.4822 20.7161 68.739 20.6294L69.7985 24.7228C68.921 25.1127 67.8187 25.3076 66.4916 25.3076Z" fill="#0E0E0E"/>
<path d="M85.2398 19.3949C85.2398 20.023 85.3147 20.4887 85.4646 20.7919C85.6358 21.0951 85.9248 21.3225 86.3314 21.4741L85.1756 25.2102C84.084 25.1235 83.185 24.8961 82.4787 24.5279C81.7938 24.1597 81.2373 23.575 80.8092 22.7736C79.7176 24.4629 77.9945 25.3076 75.6401 25.3076C73.9492 25.3076 72.59 24.8095 71.5626 23.8132C70.5566 22.7953 70.0536 21.4849 70.0536 19.8822C70.0536 17.9763 70.7493 16.5144 72.1405 15.4964C73.5318 14.4785 75.5438 13.9695 78.1765 13.9695H79.6534V13.3848C79.6534 12.4535 79.4607 11.8254 79.0755 11.5005C78.6902 11.154 77.9945 10.9807 76.9886 10.9807C76.4535 10.9807 75.7792 11.0673 74.9659 11.2406C74.1739 11.3922 73.3606 11.6088 72.5258 11.8904L71.2737 8.15431C72.3011 7.72115 73.4034 7.39628 74.5806 7.1797C75.7578 6.94146 76.8494 6.82234 77.8554 6.82234C80.4239 6.82234 82.2968 7.34213 83.474 8.38173C84.6512 9.39966 85.2398 10.9699 85.2398 13.0924V19.3949ZM77.3738 21.2467C77.8447 21.2467 78.2728 21.1276 78.6581 20.8893C79.0648 20.6294 79.3965 20.2829 79.6534 19.8497V17.0558H78.6902C77.6628 17.0558 76.9029 17.2508 76.4106 17.6406C75.9183 18.0088 75.6722 18.5719 75.6722 19.3299C75.6722 19.9147 75.822 20.3804 76.1217 20.7269C76.4213 21.0734 76.8387 21.2467 77.3738 21.2467Z" fill="#0E0E0E"/>
<path d="M99.2961 6.82234C100.752 6.82234 101.897 7.27716 102.731 8.1868C103.566 9.09645 103.984 10.3743 103.984 12.0203V24.7228H98.2687V13.0599C98.2687 12.3019 98.1616 11.7821 97.9476 11.5005C97.7336 11.1973 97.4125 11.0457 96.9844 11.0457C96.0854 11.0457 95.2293 11.7063 94.4159 13.0274V24.7228H88.701V7.40711H93.6775L94.0949 9.35635C94.8654 8.49002 95.6681 7.8511 96.5028 7.43959C97.3376 7.02809 98.2687 6.82234 99.2961 6.82234Z" fill="#0E0E0E"/>
<path d="M123.51 8.51168C122.333 9.00981 120.696 9.25888 118.598 9.25888C119.733 9.71371 120.557 10.2985 121.07 11.0132C121.605 11.7063 121.873 12.6159 121.873 13.7421C121.873 14.8467 121.573 15.8322 120.974 16.6985C120.375 17.5648 119.519 18.247 118.405 18.7452C117.292 19.2433 115.987 19.4924 114.489 19.4924C113.739 19.4924 113.108 19.4382 112.594 19.3299C112.273 19.5465 112.113 19.8173 112.113 20.1421C112.113 20.4237 112.23 20.6511 112.466 20.8244C112.723 20.9976 113.204 21.0843 113.911 21.0843H116.415C117.763 21.0843 118.951 21.3008 119.979 21.734C121.006 22.1672 121.787 22.7736 122.322 23.5533C122.879 24.3113 123.157 25.1777 123.157 26.1523C123.157 27.9932 122.365 29.4227 120.781 30.4406C119.197 31.4802 116.918 32 113.943 32C111.781 32 110.079 31.7726 108.838 31.3178C107.618 30.8629 106.762 30.224 106.269 29.401C105.777 28.578 105.531 27.5601 105.531 26.3472H110.636C110.636 26.8453 110.721 27.2244 110.893 27.4843C111.085 27.7658 111.428 27.9607 111.92 28.069C112.412 28.199 113.14 28.264 114.103 28.264C115.366 28.264 116.233 28.1124 116.704 27.8091C117.175 27.5059 117.41 27.0944 117.41 26.5746C117.41 26.1415 117.239 25.7841 116.897 25.5025C116.554 25.221 116.019 25.0802 115.291 25.0802H112.851C110.989 25.0802 109.598 24.7662 108.677 24.1381C107.778 23.4883 107.329 22.6545 107.329 21.6365C107.329 20.9868 107.522 20.3587 107.907 19.7523C108.292 19.1459 108.806 18.6477 109.448 18.2579C108.335 17.6514 107.532 16.9475 107.04 16.1462C106.548 15.3448 106.301 14.381 106.301 13.2548C106.301 11.2406 107.008 9.67039 108.42 8.54416C109.833 7.39628 111.717 6.82234 114.071 6.82234C115.741 6.88731 117.196 6.70321 118.438 6.27005C119.679 5.81523 120.942 5.17631 122.226 4.3533L123.51 8.51168ZM114.232 10.5909C113.547 10.5909 113.001 10.8183 112.594 11.2731C112.188 11.7063 111.984 12.3235 111.984 13.1249C111.984 13.9912 112.188 14.6518 112.594 15.1066C113.001 15.5614 113.557 15.7888 114.264 15.7888C115.762 15.7888 116.511 14.8792 116.511 13.0599C116.511 12.2152 116.319 11.598 115.933 11.2081C115.569 10.7966 115.002 10.5909 114.232 10.5909Z" fill="#0E0E0E"/>
<path d="M139.92 15.7888C139.92 15.9188 139.888 16.5685 139.824 17.7381H129.357C129.507 19.0592 129.871 19.9689 130.449 20.467C131.048 20.9435 131.894 21.1817 132.985 21.1817C133.627 21.1817 134.259 21.0626 134.879 20.8244C135.522 20.5645 136.217 20.1746 136.966 19.6548L139.278 22.8386C138.379 23.5966 137.352 24.203 136.196 24.6579C135.04 25.091 133.788 25.3076 132.439 25.3076C129.528 25.3076 127.313 24.4846 125.793 22.8386C124.295 21.1709 123.546 18.9401 123.546 16.1462C123.546 14.3919 123.856 12.8108 124.477 11.403C125.119 9.99526 126.061 8.87986 127.302 8.05685C128.544 7.23384 130.042 6.82234 131.797 6.82234C134.302 6.82234 136.281 7.61286 137.737 9.19391C139.192 10.7533 139.92 12.9516 139.92 15.7888ZM134.302 14.1645C134.28 13.0166 134.088 12.1286 133.724 11.5005C133.36 10.8724 132.75 10.5584 131.894 10.5584C131.102 10.5584 130.502 10.8399 130.096 11.403C129.689 11.9662 129.432 12.9516 129.325 14.3594H134.302V14.1645Z" fill="#0E0E0E"/>
<path d="M143.217 6.82234L155 12.3777V15.4315L143.217 20.9868L142.158 18.5827L152.656 13.9046L142.158 9.29137L143.217 6.82234Z" fill="#0E0E0E"/>
</svg>
